<svg xmlns="http://www.w3.org/2000/svg" width="16" height="16" viewBox="0 0 12 12">
    <path d="M8.996 11.422H2.672a.969.969 0 0 1-.969-.969V1.215c0-.54.434-.969.969-.969h4.621c.078 0 .14.04.187.094l2.391 2.387a.24.24 0 0 1 .094.191v7.535a.969.969 0 0 1-.969.969zM7.536 1.066v1.606h1.609zM9.48 3.16H7.293a.247.247 0 0 1-.246-.242V.73H2.672a.487.487 0 0 0-.485.485v9.238c0 .266.22.485.485.485h6.324a.487.487 0 0 0 .484-.485zM8.02 9.48H3.645a.244.244 0 0 1-.243-.246.24.24 0 0 1 .243-.238H8.02c.132 0 .246.106.246.238a.248.248 0 0 1-.246.246zm0-1.945H3.645a.243.243 0 0 1-.243-.242c0-.133.11-.246.243-.246H8.02a.25.25 0 0 1 .246.246.247.247 0 0 1-.246.242zm0-1.945H3.645a.243.243 0 0 1-.243-.242.24.24 0 0 1 .243-.243H8.02c.132 0 .246.106.246.243a.247.247 0 0 1-.246.242zm0 0" fill-rule="evenodd"/>
</svg>
